<svg width="1200" height="630" viewBox="0 0 1200 630" xmlns="http://www.w3.org/2000/svg">
  <defs>
    <linearGradient id="bg" x1="0" y1="0" x2="1" y2="1">
      <stop offset="0%" stop-color="#030712"/>
      <stop offset="100%" stop-color="#0f172a"/>
    </linearGradient>

    <linearGradient id="tile" x1="0" y1="0" x2="1" y2="1">
      <stop offset="0%" stop-color="#0ea5e9"/>
      <stop offset="100%" stop-color="#3b82f6"/>
    </linearGradient>

    <linearGradient id="pill-green" x1="0" y1="0" x2="1" y2="1">
      <stop offset="0%" stop-color="#22c55e"/>
      <stop offset="100%" stop-color="#16a34a"/>
    </linearGradient>
    <linearGradient id="pill-blue" x1="0" y1="0" x2="1" y2="1">
      <stop offset="0%" stop-color="#2563eb"/>
      <stop offset="100%" stop-color="#3b82f6"/>
    </linearGradient>
    <linearGradient id="pill-amber" x1="0" y1="0" x2="1" y2="1">
      <stop offset="0%" stop-color="#f59e0b"/>
      <stop offset="100%" stop-color="#f97316"/>
    </linearGradient>
  </defs>

  <!-- Background -->
  <rect width="1200" height="630" fill="url(#bg)" />

  <!-- Subtle grid -->
  <g stroke="#1e293b" stroke-width="1" opacity="0.35">
    <g>
      <!-- 40px vertical grid -->
      <line x1="0" y1="0" x2="0" y2="630"/>
      <line x1="40" y1="0" x2="40" y2="630"/>
      <line x1="80" y1="0" x2="80" y2="630"/>
      <line x1="120" y1="0" x2="120" y2="630"/>
      <line x1="160" y1="0" x2="160" y2="630"/>
      <line x1="200" y1="0" x2="200" y2="630"/>
      <line x1="240" y1="0" x2="240" y2="630"/>
      <line x1="280" y1="0" x2="280" y2="630"/>
      <line x1="320" y1="0" x2="320" y2="630"/>
      <line x1="360" y1="0" x2="360" y2="630"/>
      <line x1="400" y1="0" x2="400" y2="630"/>
      <line x1="440" y1="0" x2="440" y2="630"/>
      <line x1="480" y1="0" x2="480" y2="630"/>
      <line x1="520" y1="0" x2="520" y2="630"/>
      <line x1="560" y1="0" x2="560" y2="630"/>
      <line x1="600" y1="0" x2="600" y2="630"/>
      <line x1="640" y1="0" x2="640" y2="630"/>
      <line x1="680" y1="0" x2="680" y2="630"/>
      <line x1="720" y1="0" x2="720" y2="630"/>
      <line x1="760" y1="0" x2="760" y2="630"/>
      <line x1="800" y1="0" x2="800" y2="630"/>
      <line x1="840" y1="0" x2="840" y2="630"/>
      <line x1="880" y1="0" x2="880" y2="630"/>
      <line x1="920" y1="0" x2="920" y2="630"/>
      <line x1="960" y1="0" x2="960" y2="630"/>
      <line x1="1000" y1="0" x2="1000" y2="630"/>
      <line x1="1040" y1="0" x2="1040" y2="630"/>
      <line x1="1080" y1="0" x2="1080" y2="630"/>
      <line x1="1120" y1="0" x2="1120" y2="630"/>
      <line x1="1160" y1="0" x2="1160" y2="630"/>
      <line x1="1200" y1="0" x2="1200" y2="630"/>
    </g>
    <g>
      <!-- horizontal grid -->
      <line x1="0" y1="0" x2="1200" y2="0"/>
      <line x1="0" y1="40" x2="1200" y2="40"/>
      <line x1="0" y1="80" x2="1200" y2="80"/>
      <line x1="0" y1="120" x2="1200" y2="120"/>
      <line x1="0" y1="160" x2="1200" y2="160"/>
      <line x1="0" y1="200" x2="1200" y2="200"/>
      <line x1="0" y1="240" x2="1200" y2="240"/>
      <line x1="0" y1="280" x2="1200" y2="280"/>
      <line x1="0" y1="320" x2="1200" y2="320"/>
      <line x1="0" y1="360" x2="1200" y2="360"/>
      <line x1="0" y1="400" x2="1200" y2="400"/>
      <line x1="0" y1="440" x2="1200" y2="440"/>
      <line x1="0" y1="480" x2="1200" y2="480"/>
      <line x1="0" y1="520" x2="1200" y2="520"/>
      <line x1="0" y1="560" x2="1200" y2="560"/>
      <line x1="0" y1="600" x2="1200" y2="600"/>
    </g>
  </g>

  <!-- Terminal-style tile -->
  <rect x="140" y="200" width="190" height="190" rx="30" fill="url(#tile)" />
  <text x="235" y="312"
        text-anchor="middle"
        font-family="'JetBrains Mono', 'IBM Plex Mono', monospace"
        font-size="54"
        letter-spacing="2"
        fill="#e2e8f0">
    $ {dp}
  </text>

  <!-- Name -->
  <text x="370" y="260"
        font-family="'JetBrains Mono', monospace"
        font-size="42"
        letter-spacing="1.5"
        fill="#e2e8f0">
    Daniel Piro
  </text>

  <!-- Subtitle -->
  <text x="370" y="305"
        font-family="'JetBrains Mono', monospace"
        font-size="22"
        letter-spacing="1.5"
        fill="#38bdf8">
    Technologist, Inventor &amp; Builder
  </text>

  <!-- Quote line -->
  <text x="370" y="350"
        font-family="'JetBrains Mono', monospace"
        font-size="18"
        letter-spacing="1.2"
        font-style="italic"
        fill="#94a3b8">
    "Innovation should serve curiosity — built with both precision and imagination."
  </text>

  <!-- Pills -->
  <g transform="translate(330, 400)">
    <rect x="0" y="0" rx="20" width="110" height="44" fill="none" stroke="url(#pill-green)" stroke-width="2"/>
    <text x="55" y="28" text-anchor="middle"
          font-family="'JetBrains Mono', monospace"
          font-size="16" letter-spacing="1.2" fill="#bbf7d0">AI</text>
  </g>

  <g transform="translate(480, 400)">
    <rect x="0" y="0" rx="20" width="160" height="44" fill="none" stroke="url(#pill-blue)" stroke-width="2"/>
    <text x="80" y="28" text-anchor="middle"
          font-family="'JetBrains Mono', monospace"
          font-size="16" letter-spacing="1.2" fill="#bfdbfe">Software</text>
  </g>

  <g transform="translate(670, 400)">
    <rect x="0" y="0" rx="20" width="150" height="44" fill="none" stroke="url(#pill-amber)" stroke-width="2"/>
    <text x="75" y="28" text-anchor="middle"
          font-family="'JetBrains Mono', monospace"
          font-size="16" letter-spacing="1.2" fill="#fed7aa">Devices</text>
  </g>

  <!-- URL -->
  <text x="600" y="565"
        text-anchor="middle"
        font-family="'JetBrains Mono', monospace"
        font-size="14"
        letter-spacing="1.5"
        fill="#475569">
    danielpiro.com
  </text>
</svg>
