<svg width="1200" height="630" viewBox="0 0 1200 630" xmlns="http://www.w3.org/2000/svg">
  <defs>
    <!-- Background gradient -->
    <linearGradient id="bg" x1="0" y1="0" x2="1" y2="1">
      <stop offset="0%" stop-color="#020617"/>
      <stop offset="100%" stop-color="#020817"/>
    </linearGradient>

    <!-- Blue tile gradient -->
    <linearGradient id="tile" x1="0" y1="0" x2="1" y2="1">
      <stop offset="0%" stop-color="#2563eb"/>
      <stop offset="100%" stop-color="#3b82f6"/>
    </linearGradient>

    <!-- Pill gradients -->
    <linearGradient id="pill-green" x1="0" y1="0" x2="1" y2="1">
      <stop offset="0%" stop-color="#16a34a"/>
      <stop offset="100%" stop-color="#22c55e"/>
    </linearGradient>
    <linearGradient id="pill-blue" x1="0" y1="0" x2="1" y2="1">
      <stop offset="0%" stop-color="#1d4ed8"/>
      <stop offset="100%" stop-color="#3b82f6"/>
    </linearGradient>
    <linearGradient id="pill-amber" x1="0" y1="0" x2="1" y2="1">
      <stop offset="0%" stop-color="#f59e0b"/>
      <stop offset="100%" stop-color="#f97316"/>
    </linearGradient>
  </defs>

  <!-- Background -->
  <rect width="1200" height="630" fill="url(#bg)"/>

  <!-- Subtle grid -->
  <g stroke="#0f172a" stroke-width="1" opacity="0.55">
    <!-- vertical lines (40px spacing) -->
    <g>
      <line x1="0" y1="0" x2="0" y2="630"/>
      <line x1="40" y1="0" x2="40" y2="630"/>
      <line x1="80" y1="0" x2="80" y2="630"/>
      <line x1="120" y1="0" x2="120" y2="630"/>
      <line x1="160" y1="0" x2="160" y2="630"/>
      <line x1="200" y1="0" x2="200" y2="630"/>
      <line x1="240" y1="0" x2="240" y2="630"/>
      <line x1="280" y1="0" x2="280" y2="630"/>
      <line x1="320" y1="0" x2="320" y2="630"/>
      <line x1="360" y1="0" x2="360" y2="630"/>
      <line x1="400" y1="0" x2="400" y2="630"/>
      <line x1="440" y1="0" x2="440" y2="630"/>
      <line x1="480" y1="0" x2="480" y2="630"/>
      <line x1="520" y1="0" x2="520" y2="630"/>
      <line x1="560" y1="0" x2="560" y2="630"/>
      <line x1="600" y1="0" x2="600" y2="630"/>
      <line x1="640" y1="0" x2="640" y2="630"/>
      <line x1="680" y1="0" x2="680" y2="630"/>
      <line x1="720" y1="0" x2="720" y2="630"/>
      <line x1="760" y1="0" x2="760" y2="630"/>
      <line x1="800" y1="0" x2="800" y2="630"/>
      <line x1="840" y1="0" x2="840" y2="630"/>
      <line x1="880" y1="0" x2="880" y2="630"/>
      <line x1="920" y1="0" x2="920" y2="630"/>
      <line x1="960" y1="0" x2="960" y2="630"/>
      <line x1="1000" y1="0" x2="1000" y2="630"/>
      <line x1="1040" y1="0" x2="1040" y2="630"/>
      <line x1="1080" y1="0" x2="1080" y2="630"/>
      <line x1="1120" y1="0" x2="1120" y2="630"/>
      <line x1="1160" y1="0" x2="1160" y2="630"/>
      <line x1="1200" y1="0" x2="1200" y2="630"/>
    </g>
    <!-- horizontal lines -->
    <g>
      <line x1="0" y1="0" x2="1200" y2="0"/>
      <line x1="0" y1="40" x2="1200" y2="40"/>
      <line x1="0" y1="80" x2="1200" y2="80"/>
      <line x1="0" y1="120" x2="1200" y2="120"/>
      <line x1="0" y1="160" x2="1200" y2="160"/>
      <line x1="0" y1="200" x2="1200" y2="200"/>
      <line x1="0" y1="240" x2="1200" y2="240"/>
      <line x1="0" y1="280" x2="1200" y2="280"/>
      <line x1="0" y1="320" x2="1200" y2="320"/>
      <line x1="0" y1="360" x2="1200" y2="360"/>
      <line x1="0" y1="400" x2="1200" y2="400"/>
      <line x1="0" y1="440" x2="1200" y2="440"/>
      <line x1="0" y1="480" x2="1200" y2="480"/>
      <line x1="0" y1="520" x2="1200" y2="520"/>
      <line x1="0" y1="560" x2="1200" y2="560"/>
      <line x1="0" y1="600" x2="1200" y2="600"/>
      <line x1="0" y1="640" x2="1200" y2="640"/>
    </g>
  </g>

  <!-- {dp} blue tile -->
  <rect x="140" y="200" width="190" height="190" rx="40" fill="url(#tile)"/>
  <text x="235" y="313"
        text-anchor="middle"
        font-family="system-ui, -apple-system, BlinkMacSystemFont, 'SF Pro Display', sans-serif"
        font-size="64"
        fill="#f9fafb">
    {dp}
  </text>

  <!-- Name -->
  <text x="370" y="260"
        font-family="system-ui, -apple-system, BlinkMacSystemFont, 'SF Pro Display', sans-serif"
        font-size="44"
        fill="#f9fafb">
    Daniel Piro
  </text>

  <!-- Subtitle -->
  <text x="370" y="310"
        font-family="system-ui, -apple-system, BlinkMacSystemFont, 'SF Pro Text', sans-serif"
        font-size="26"
        fill="#60a5fa">
    Technologist, Inventor &amp; Builder
  </text>

  <!-- Optional focus line -->
  <text x="370" y="350"
        font-family="system-ui, -apple-system, BlinkMacSystemFont, 'SF Pro Text', sans-serif"
        font-size="20"
        fill="#9ca3af">
    Software · AI · Devices · System Integration
  </text>

  <!-- Pills row -->
  <!-- AI -->
  <g transform="translate(330, 400)">
    <rect x="0" y="0" rx="26" width="120" height="52"
          fill="none" stroke="url(#pill-green)" stroke-width="2"/>
    <text x="60" y="32"
          text-anchor="middle"
          font-family="system-ui, -apple-system, BlinkMacSystemFont, 'SF Pro Text', sans-serif"
          font-size="18"
          fill="#bbf7d0">
      AI
    </text>
  </g>

  <!-- Software -->
  <g transform="translate(490, 400)">
    <rect x="0" y="0" rx="26" width="160" height="52"
          fill="none" stroke="url(#pill-blue)" stroke-width="2"/>
    <text x="80" y="32"
          text-anchor="middle"
          font-family="system-ui, -apple-system, BlinkMacSystemFont, 'SF Pro Text', sans-serif"
          font-size="18"
          fill="#bfdbfe">
      Software
    </text>
  </g>

  <!-- Devices -->
  <g transform="translate(690, 400)">
    <rect x="0" y="0" rx="26" width="150" height="52"
          fill="none" stroke="url(#pill-amber)" stroke-width="2"/>
    <text x="75" y="32"
          text-anchor="middle"
          font-family="system-ui, -apple-system, BlinkMacSystemFont, 'SF Pro Text', sans-serif"
          font-size="18"
          fill="#fed7aa">
      Devices
    </text>
  </g>

  <!-- URL at bottom -->
  <text x="600" y="560"
        text-anchor="middle"
        font-family="system-ui, -apple-system, BlinkMacSystemFont, 'SF Pro Text', sans-serif"
        font-size="16"
        fill="#6b7280">
    danielpiro.com
  </text>
</svg>
