<svg width="1200" height="630" viewBox="0 0 1200 630" fill="none" xmlns="http://www.w3.org/2000/svg">
  <!-- Dark background matching website theme -->
  <rect width="1200" height="630" fill="#0a0a0a"/>
  
  <!-- Grid pattern - subtle like the website -->
  <pattern id="grid" width="40" height="40" patternUnits="userSpaceOnUse">
    <path d="M 40 0 L 0 0 0 40" fill="none" stroke="#1a1a1a" stroke-width="1"/>
  </pattern>
  <rect width="1200" height="630" fill="url(#grid)"/>
  
  <!-- Code brackets decoration -->
  <path d="M 80 120 L 100 140 L 80 160" stroke="#3B82F6" stroke-width="3" stroke-linecap="round" stroke-linejoin="round" opacity="0.4"/>
  <path d="M 1120 120 L 1100 140 L 1120 160" stroke="#3B82F6" stroke-width="3" stroke-linecap="round" stroke-linejoin="round" opacity="0.4"/>
  
  <!-- Main icon with {dp} -->
  <rect x="80" y="220" width="180" height="180" rx="20" fill="url(#icon-gradient)"/>
  <defs>
    <linearGradient id="icon-gradient" x1="80" y1="220" x2="260" y2="400" gradientUnits="userSpaceOnUse">
      <stop offset="0%" stop-color="#3B82F6"/>
      <stop offset="100%" stop-color="#1D4ED8"/>
    </linearGradient>
  </defs>
  <text x="170" y="340" font-family="monospace" font-size="60" font-weight="700" fill="white" text-anchor="middle">{dp}</text>
  
  <!-- Name and title -->
  <text x="300" y="270" font-family="monospace" font-size="56" font-weight="700" fill="white">Daniel Piro</text>
  <text x="300" y="330" font-family="monospace" font-size="32" fill="#3B82F6">Technical Lead @ Meta</text>
  <text x="300" y="380" font-family="sans-serif" font-size="24" fill="#94a3b8">AI Wearables Integration</text>
  
  <!-- Tech badges with theme colors -->
  <g transform="translate(80, 460)">
    <!-- Generative AI badge -->
    <rect x="0" y="0" width="180" height="60" rx="30" fill="#22c55e" fill-opacity="0.15"/>
    <rect x="0" y="0" width="180" height="60" rx="30" stroke="#22c55e" stroke-width="2" fill="none"/>
    <text x="90" y="38" font-family="monospace" font-size="18" font-weight="600" fill="#22c55e" text-anchor="middle">Generative AI</text>
    
    <!-- Wearables badge -->
    <rect x="200" y="0" width="140" height="60" rx="30" fill="#3B82F6" fill-opacity="0.15"/>
    <rect x="200" y="0" width="140" height="60" rx="30" stroke="#3B82F6" stroke-width="2" fill="none"/>
    <text x="270" y="38" font-family="monospace" font-size="18" font-weight="600" fill="#3B82F6" text-anchor="middle">Wearables</text>
    
    <!-- Computer Vision badge -->
    <rect x="360" y="0" width="200" height="60" rx="30" fill="#f59e0b" fill-opacity="0.15"/>
    <rect x="360" y="0" width="200" height="60" rx="30" stroke="#f59e0b" stroke-width="2" fill="none"/>
    <text x="460" y="38" font-family="monospace" font-size="18" font-weight="600" fill="#f59e0b" text-anchor="middle">Computer Vision</text>
  </g>
  
  <!-- Bottom domain -->
  <text x="600" y="580" font-family="monospace" font-size="20" fill="#64748b" text-anchor="middle">danielpiro.com</text>
  
  <!-- Code accent dots -->
  <circle cx="60" cy="60" r="4" fill="#3B82F6" opacity="0.5"/>
  <circle cx="1140" cy="60" r="4" fill="#22c55e" opacity="0.5"/>
  <circle cx="60" cy="570" r="4" fill="#f59e0b" opacity="0.5"/>
  <circle cx="1140" cy="570" r="4" fill="#3B82F6" opacity="0.5"/>
</svg>
